# xmcd
#
# Track frame offsets:
#	150
#	23610
#	42257
#	65450
#	84872
#	107407
#	131830
#	152812
#	171537
#	190952
#	213897
#	236040
#
# Disc length: 3376 seconds
#
# Revision: 1
# Processed by: cddbd v1.4PL0 Copyright (c) Steve Scherf et al.
# Submitted via: audiograbber 1.81.03
#
DISCID=9c0d2e0c
DTITLE=Soul Drivers - Tight White Dress
DYEAR=1900
DGENRE=Blues
TTITLE0=Good Good Lovin'
TTITLE1=Tight White Dress
TTITLE2=Give Us A Try
TTITLE3=Moanin' For Marcella
TTITLE4=Change It
TTITLE5=Hoo Doo Man Blues
TTITLE6=Short Haired Cuties
TTITLE7=Please Don't Leave Me
TTITLE8=Rock and Roll Chick
TTITLE9=Bone Marrow (Mean Old World)
TTITLE10=Don't Keep Me Waiting
TTITLE11=Strollin' With Bone
EXTD=
EXTT0=
EXTT1=
EXTT2=
EXTT3=
EXTT4=
EXTT5=
EXTT6=
EXTT7=
EXTT8=
EXTT9=
EXTT10=
EXTT11=
PLAYORDER=
